<mxfile host="Electron" modified="2024-02-15T08:17:18.587Z" agent="Mozilla/5.0 (Windows NT 10.0; Win64; x64) AppleWebKit/537.36 (KHTML, like Gecko) draw.io/21.2.8 Chrome/112.0.5615.165 Electron/24.2.0 Safari/537.36" etag="cTj2OWLjOsofka80N6gR" version="21.2.8" type="device">
  <diagram name="Page-1" id="2XWkQP5S-hDbL94sL5Vg">
    <mxGraphModel dx="2058" dy="1180" grid="1" gridSize="10" guides="1" tooltips="1" connect="1" arrows="1" fold="1" page="1" pageScale="1" pageWidth="3300" pageHeight="4681" background="#999999" math="0" shadow="0">
      <root>
        <mxCell id="0" />
        <mxCell id="1" parent="0" />
        <mxCell id="APLwThIm-aDqV8bCMrbt-1" value="BusyIndicator" style="rounded=0;whiteSpace=wrap;html=1;fontSize=25;fillColor=#dae8fc;strokeColor=#6c8ebf;" parent="1" vertex="1">
          <mxGeometry x="1298" y="140" width="650" height="60" as="geometry" />
        </mxCell>
        <mxCell id="YfCdLvTvZNGuLOp0yaUq-1" value="" style="shape=image;verticalLabelPosition=bottom;labelBackgroundColor=default;verticalAlign=top;aspect=fixed;imageAspect=0;image=data:image/png,iVBORw0KGgoAAAANSUhEUgAAApIAAAEoCAYAAADrMRHoAAAAAXNSR0IArs4c6QAAAARnQU1BAACxjwv8YQUAAAAJcEhZcwAADsMAAA7DAcdvqGQAADZ1SURBVHhe7d0HoBxluf/xZ3dPyzknPaGEkkYqCVUQRKUERJqCePF6FQHBK6Kof/WKXhtI0YsIyjUq91ICgnpFuiAKCUVKqNJbSIEACaSdnN7Pf5533tmd3ezu2TPbd7+fZHbmfWd2Z3Z2MvvLO2VDC/fYc0jiuMWhhFq/oVQjnfo0T6tShV8j6T47AAAqVShkBwqqKDPNq+g7SrJCQwl1CUHSHRxxiEwZINO8UBYISig7bLRA6SpO+gACy26THdmTzdRpAqUvSLq9VN93mQdIpy7Fa2CEAq5IVj+Kh60vvaz2/gCGUZR/YRX2HxH37Wz7ntzqJPVukHR3/smzYtLK7ANkwJCkgj8T+VOET6WMNgS2WaB0lVUMKMrCltUaqgpZfSIjCL7JQqVbFatzguQe5jsuMddlfh5kkgC5zTSVoAjvKOAsK2/dV7sy+kTZ+PIn830/RoyVW2qK8okEnmllbT/m3SSEzcRA6Z/GBMlkmXGbyiThMJNpUst8ym1k8dSgijDLIqiOFVsdnyWAUhb/NV0gBZ9pUd5lWQm8hrJatZk92UyVQaAMLVjotkh6MjmUnT5A2iGnlzBVmQv4brJYCZW1/vKhCGuoSj4Utj0US/zXVokrysKW1RoquKzWTuAnV85nYt5J7MFwi/Hv0R8ohw+SCSFx29Fehe07vYRJUshsqqQCPjWLORZJYd9o+a2falFGnwwbUemJ3/8jKVZSOkVZO4FnWl6fZem9TfeFzWPswdjmtj92fFyQTAyR8eWEEOkUYkVnyP1rJZZLRRZLFPCppbcO0in8+slGea3bYmANoZrEf8lhW4HXUOGfWFYS8tUIld46imttjH+wg+6w0sFokIwLjXEhUcWHyMRWyFhx2+ellGbUcLJ4anD+FTACRVnWogj4TqtkBVXPdgAgE7Gv4gIKPNOiLG3BFWf1BHty/mYZG2mGbGj0h0sVN06DZMYtkXFB0Rly/5rh+JdILCcz7ASpBXxqFnPMQrW8z2pRRmu3zDYEttv8iO36K1xR3mjVrN2CC7xms/pICv95luL7NGMTWh211va8h+h0od0XLIzff/vCYupWSl9QdAZqamulqalR6mrrpK6+TiKRiE6SN/4lQRJltXoKv7BsPQCKzf0qLrTizDWQMlrUYrCxLj+clx4YGJCenh7p7e2Tzs5O6e/rc+rdeXrB0nuMD5IBQuTo0aNl7LixsqmlTbq6e6XbmWlf/4CdAFXLt/lkz91gXf4X9tejOmW6DSRukGw7ADKV0y+0slBbE5GG+loZVV8nkyaMlpaWrdLW2ursOt19Z1yYjAbJNGExWb0GzUmTJjk1YVm3cYv09vW7I4DYBpMjiV/63gwIA2AbAFAIOf9iKxt1tTWy4+Rx4mRLee+9DbbW2fvaMBk2JUeysJg8RGp/SMaMHu0MheWNdRsIkcijZEFB6wgQAIBCqd7vHM14b7yzUfRgsx6Fdo9YxzKhCZL+w9i+wRin0nuC9mtraszhbG2JBOIk236GRTAEAJS66v6eWrehRcaNHWsyoD8Thm3JiA+UzgTuUDQbeKObmpvMOZG0RFax2KaSQ4n/SAmXAIBS4jV8+LvqoJlv45Y2aWxqNGUvE0YPbcclA1+gdKs1ddo6p69XZ+uFNahS3ubh20xyp3r+USJbbCsASkH17Iu6enpNBvRyombDcDQT+EJBdNCpNMO+iXRQb/GjV2cD2YfJZP8AtY6QAAAoF9XxndXd0yf19fU2G7oBIDR/9wXOkLY4mnI0LEbrEstOf9rUafLiyrWmNpUxzU3m8vGR0lsHtbZ32BJKjredJPL+DaUanxKBsTol+9xHuvGw7QDIN2+/lOn+ZsRfgmVn9912ljVvrHGGQubKbRMk/YetvVXg1nnh0Su7/WnTpspLK98y5VQuu/gnMnO33WwpOe8HwN9evzE6n47WTfKNb39HwuGRh1DkkH4eufiuT4sgUJ3Sfe4j2cDYfgCUi5x+eRbV/N12kjVr3vDf/if25qJD0fTo9rxyNHBmYNzYMbL73Flpu/lzdjPdEQcfIB85xO0mT5o4ovkgD6Kfu+0DJYcQCSC3zv/Rd+XNFc/K26teSNrpOJ2m1Dyy7E75wPv3s6Vt6biHl/7FlnIl1tAYmr/77tHc5htwM0RC3xufSYvkdVf+Rnbeeabc+o8VEgoPuV1Eu0E5es/dZIftx0q7PYTd1NQkNz282gxPH90pnz3tDIlEakw50QtPPSLjx42zJZGdZs63Q7lx+imfldM+9xn54KKjbE1mLvjR92TPhQvkuE9+Wq65YrHs9769ZcG+H7Bjy4zdDKL839mJ4wIjCFSnTD/34TY0th8AuaVB8YijT5R1775ra+JNGD9eHrz3Dtl11p62ZqRy9gUaR4Pir37xX/KVr58jjzz2hK11pRsXlNsi6R3a9t2QPNd0Nx8KRWT11nZZ09Ymb3S2ytqerfJWX4v09Q06odTp7B9PpC6zn1b8xL+ebALkNdfdIA8t/autLR2nffHLgUPkHX/+gwmlRZNsO8962zdbQ0IHpJNsm/F3AJBbkUjEhMjW1rak3Zo33jTTbEu/JP1dYWlA1KCogdHfMpmPEJlM2GuEjIlvhYyW7aPWe4PpDAy6E02eWC+hun7Z2t8qG7o3ybtd7s/rhBJeo2F8tzRO6rSlzKxe84Ydwojous/gM4wT5DkGX/rwsC0AqET+/+QWZz+XGCbzGiKjecB5cDJh3lokvczx8rtvyeqWddLSv0W6pE16Q+2mfsiu65Bd6U3j2qWx2R2XqeOPO0buf/AhM6yHpP2tk/7y+/fbV95e+VK088ra9yRrCfReQ8f5n+vRcV79TlOm2Fr3MLc+x+N/vlfvf64erlc6bp+99zSH1rXe402nnf919TX0MLrWZ9yK6Q+D0Y3B8g+PWLJ/PMX5BwUAQLXxh8lCtER68npoW3U5wbF2VJ/UNvRJTX2v1Dqd4YQWL0SquZN3kd3GzbCl9G7+4+9MeJo+fap8/7wLbW1qP//pBfLDH19kDodr99gTT8nT/3xWjjv6o3YKSfla06dNlWeff8E87+/33iffP+dbpl4D3ZYtLdHX1HMik/GCnzednkOp9BxMr2716jdMENRxulx6yF7rlYZMr6zd+PHjTHj0zNpthqnPZD2kDIqJgXJE9DP0Pkdv2F8HAKg2yS5WSdZVj6xaakpa3oKkxwRIp6ut184XJJ2c4V+tu42fabpMeOdInn7m2SZQDmfF66vkxz/8z7jWxFvvuFMO+fAHzbCGuCee/KcZTqSHz72Q9tAjj5ogpzR4XvBfl5hhdevtd9qheInTebS102tl1FbIZLzl9YdEDZUaHj1azkjW23BiSPQ6IBm2FaCa7TRjQUYdcrd/9B/O9h/mzre8B0k3RLoBsk77dW6QdK8A99LNkPT29UlXV7ctZ0ZbFre0tMQFxGT04hcNnlf99r+jwfOqa683fX2uBsrfXnm1KY+Ezj8IDZH/76tnRVsZtRVyJLQlNC1v1fq7bWS64RICMFJsLwAwMtntNxPPiUw8ZzKf8hcknXXS09Ml7580U943fpbsM2a27NU0T/YYtbupdydxV5xmysHBQRlwupHQEKi3AtJA98JLL5vD0B49fzKRXkmtLYwa5JSeX+kdqh5pKGxp2Rp3iPn4j207P6WHrb15+OnzPf4WyY2bNkfPt/SWyX/+o54/qYfaU0oaGpPJeEIAqCL6vcR/hqrRwMCAucVPKjvssJ2ZJphk21VutrNUF9YUKkxGg6R3j0jbi8UMMzDk1jsP0fphaCacN2cX+eKhh8sXD/6IfOFDR8kZH/qYnH7Qx2XunJ2lsbFJtttuskyYOEFq62pNkAyHM1up3jmS2tfD3EpDl7bseYeL/fwXtmhrntcaqYeMNcR5F+yMhJ7j+JHDD42+bqpD43reox4O96bTcyZ1/uPGjY3W+Vsk9fC597pKw6938Y12epg+5fmQmX44AFCVvC/zVN81ufliR3m69vo/mvtEJjuXU7vH/3GPmSY3Mt3W0k+n93H82UU/2iZEerwweclPzrU1uWGjoemH5s3f3S1Hg2R83w2P8UFy+rRp8tKq9Dck//rZX5K990x9085wOGw6TffReTmee+55+dllv5RwihuS55pezFK2Nw73i63CgHRjTXwRdqoYKbYZlKJU2+Vw+7ysd6zACKTbHlNvixom/Tkq3+bP3ElWr1njLp0z77wFSX3+0KATEm05U7pgoXDErJh88w5N6zmUZWWkK3VYqTbW/H8GqDRsMyhF6bZLb5+XbJpc7Wz1tXO+40bFSdxG/Ntk6Ww/iUEyf7f/0ReP1JifOhxJp88pRIjUw8R6yx5CZKL8r3tUKrYdlIrEbTHdjtObVqfxpvMPZyvIvwv+LVWnVNttrrbF/Mj7VdulSq+WLrtD2nnZlpLtsLSOHRmAcpRq35VuB+p/Tr6+tDPdpwbZ97K/rhyJn2Vph0hVtUGy7GS9LbGjQT6xfaEUVON2yL+9ylNen2lCkLRpxTs/0imbIfvg1uqjNx7lIdVGyQ4IQeh2k9gBuTbS7StxulLYLrNZhlJYfhRP6X7+Jg3aa2a0RItkVWHHhGyxDaEYCrHdpZqH1udq/vz7wUh4215pbzcEyarjbZDs0ABUilT7M399kH1ets+vFqyb/CvddUyQrEr8owdQblLtt3K5PxvutRLHa9nrEqV6rVT1xZLuPWTCe142r4HMlOb6JUiWinSnnWZ1Sir/sAEUU7EDRtD5p3qO93qJ40cyj0ynzWQ6/YLI5kvCe26Q10i2fFqXqkMlIkiWgnT/jrPZP/APFxljR4988G9TI9m+Uk2bWJ+PbVZfM+jrjuR5qabVnb5/x5/N8mQqcX75ku/3gWJwf9nGu/rG9tP9qo2Omz59mtx7zz1mEgAAAFSHw484QlavXhP98RhaJAEAABAIQRIAAACBECQBAAAQCEESAAAAgZggaS+tcfvehTbmMhtbtBfa2IL5CwAAgCrjBkKbCe1V295V2qbvhUbn0S366kx/SKZPmy733stV2wAqWP+A9C5/VXoffEn6V7wjA6vWy1BLhwy2d5vR4eYGCY1vlpoZ20tk1hSpO3iB1O0/S6QmYsYDQCU6/PAjZPWa1RLS2zmFnEeCJAC4hnr6pPeBF6Xn7qel595nZGhrpx2TmdCYRqlftIfUH7m31B22h4Tqa+0YAKgMiUGScyQBYGBQum98WDZ9+D9l6xd+Jd03PTLiEKmGWjul+5blsvXM38imQ75nXlNfGwAqFUESQFXrffBF2XzMj6X1W9fI4PottjZ7g+9sNq+5+aPnSs/S58wRHQCoNBzaBlCVhrp6pe2cJdJ92+O2Zls183eR+kV7Ss28nSU8eayEt3M6p68GN7bK4Iatput/ca30LHvO6b9pxiXT8PH9ZfR/nSqhUXW2BgDKT5pzJH3BUdnQ6I7SITvO6aZPJ0gCKF/a8tjyhcXS/9waWxNTs9uOMurURVK3aA+JTJlgazMzuG6L9Cx9VjqvukcGVr1ra2NqFkyVsf/75RG/LgCUChMkV692QyTnSAKoNhoeN3/swm1CZHjH8TLmZ6fKhL+dJ6NOPiRQ2NPXGPXZQ2TiPec7r3XaNq/R/8IbsuXY86XviRW2BgDKG0ESQNXQ8LjlpItl8N0WW+Nq/PLRMvH+C6XhpA+K1ORgt+i8RsNJB8mEBy6SxrOOspWuwU1t0nLyZSZUAkC5I0gCqArmcPYZvzLnRnr0fMWxv/mSNH/7ExJqyP25i6G6Gmk+50QZu/iLcedG6jK0fP6/zaFwAChnBEkAFc8Ety8sjmuJ1MPQ42/5rtQfva+tyZ/6Y/cz8wpPGmNrnGDrLEvLaZfLUId7g3MAKEcESQAVT6/O9p8Tqa2D4675qtTM28XW5J/Oa+xVZ8e1fPa/vFZa/2OJLQFA+Qm7l2Wbi7H10Qwr9yptd8hOYTsAKB96n8jEW/yMufT0goZIT+1e02XML063JVfPnU9K78Mv2xIAlL5oLnSCIi2SACrXwKC0X3SjLbj0wppCHM5Opf6ofaXp7GNsydV+3h9F+vkFHADlhyAJoGJ13/yo9L/8li2550U2fe04WyqexrOONjc39/S/+rZ0/eFBWwKA8kGQBFCRhnr6pP2SW23J1fyNj0uovtaWiifUWC9N3zrellwdl94qQ339tgQA5YEgCaAi9T7wYtxvZ+sv1jR84gO2VHyjPnmQ1MyaYksig5vbpe8hzpUEUF4IkgAqUs/dT9shl/7sYU5uNp4rkbA0/Et8sO2+PfXvfgNAKQrHrsiO9dzLtePrvCr7C9xuJQCUov4B6bn3GVtw6W9nlxq98Mav52//NIfkAaBUuRnQBEIzRIskgIrTu/xVGdraaUsiNfN3CfTb2fkW2XWy1Oy+qy05O+WObnNIHgDKBUESQMXpffAlO+SqX7SnHSo99YfFt5T2/XOlHQKA0keQBFBx+le8Y4dcNfN2tkOlJzJ1sh1y9b8Uu10RAJQ6giSAijOwar0dcoUnx+7ZWGrCO0+0Q66BtRvsEACUPoIkgIoz1NJhh1z+m3+XmshO8UFyaEu7HQKA0hcXJL1rsU3fFtxht+CvB4BSNdjebYdcJd0iueN4O+QaTAjBAFBqNBZ6cZAWSQAoolBtjbmnZNQg/1sHUD4IkgAqTri5wQ65BjdstUOlafSFn5UxPztVxvzyDBn7my/ZWgAofQRJABUnNK7JDrkG3yvtIDnq0x+WhpM+KA3HHyD1R8ffpBwAShlBEkDFiczYwQ65Sr1FEgDKFUESQMWpmTXFDrn6X+bejACQDyZIur+j7Z3g7faTP9pf2XYrAKAk1X14vh1y9Sx91g4BALISzYDOgJMdaZEEUHHqDpgjobGNtqS/FrNWBt7ZbEsAgFwhSAKoPDURqT98L1tw9S59zg4BAHKFIAmgItV/dB875OpaslSkf9CWAAC5QJAEUJHqDt5dwjvEfjWm//V10n3zI7YEAMgFgiSAihSqr5Xmbx1vS672S2+Toe5eWwIAZGubIOlevG0vydlmGADKR8MnDpSaeTvbksjgui3ScflfbAkAkC1aJAFUrkhYmr93ki24OhffJT13PmlLAIBsECQBVLS6D82Xho/vb0uu1m9eLf0vr7UlAEBQBEkAFW/0xadKzR7TbElkqKtXWk67nDAJAFkiSAKoeKGGOhl35VckvP04W+OeL7nlhJ9Iz11P2RoAwEgRJAFUBQ2R4646W0Kj6myN2zK59Uu/kfaLb+ZqbgAIIBz7jW2fbS7a9v3GtvvD3FoCgLJSs3CqjL/xnLiWSaUX4Gw65HvS9X//yM1Ny53X6L3vebu/BIBK4uzXdN/m/qVFEkB10TA54Y7vx50zqfRQd9u3r5XNR/5Iuq67b+S/ze3sWPtffFM6LrlVNn3oO9Jy6i+l97HX7EgAqEyhuXPnuf9ndh61P2RSZuKw88etMHUzZkyXpUuX6rMAoCzpYe22c5ZI922P25pt1czbReoP31Nq5u4k4cljJbyd20ltjQy1dcngxlYZWLVe+p5eJT13Py0Db26wz3TVH7GXjL3yK7YEAOVv0aJFsmrVagmFQk6KDBEkAVS33n+8JO0X3pifK7idnezE+y+UyLTtbAUAlLfEIMmhbQBVTe8zOeHOH8iYn38+7re5sxWqq5FRJ31QpDZiawCg8hAkASASloZPfkAmPniRORStw6GxjXbkyNTuNV1Gn/8ZmfjEz2X0xadIZKeJdgwAVB57aNt36Fpr7SHsVIe3ObQNoOL1D5iLZXoffFEGVrwj/avelaGWDhlq7zajQ2NGmbBZM317iczYQWr3niG1B86V8IRmMx4AKpF3aNucHxk7RzIWEgmSAAAASCYxSHJoGwAAAIEQJAEAABAIQRIAAACBhM05kXHccyNd7pB5tA/uHwAAAFQbzYCxdDhEiyQAAACCIUgCAAAgEIIkAAAAAiFIAgAAIBCCJAAAAAJxg6S9DNt/NbYZNhfkuLXRsr8PAACA6uEFQv3rdLRIAgAAIBCCJAAAAAIhSAIAACAQgiQAAAACCc2ZO29Iz5bUcyeHzIU1pugOa71/nBkekhnTZ8iyZUv1+SPmzsPlHwYAAED+hEIhOxQ/PBKHHbZIVq1eJSHnj/MiSYKkDYvuYPLyjBkjC5L6vFSdNx4AAAC554VG7afqMuUFSefV3OfmK0h64XBwcNB0Wu7r65Oenh7T9TrDWvaPBwAAQG6Fw2GJRCJSW1srdU5XX19vOi1rGNTx2qnhQmVikMzLOZIaCjUc9vf3m7DY1tYmGzZskHXr18u7770nLVu3Smdnpxk3MDBAiAQAAMgTzWSauTR7aQbTLKaZTLOZZjQdp5ktSMNeToNkYoBsb283C7lh40ZptQsKAACA4tJMptlMM5pmNc1sQQJlzoKkzlBbF3Uhent7ZcuWLWbh2js6zAIBAACgtGhG06ymmU2zm2Y4zXKZHjHOSZD0QqSm2K6uLtm0ebNpOtU6AAAAlDbNbJrdNMNpltNMl0mYNEHSTGIndIfNYIyv7JvKSAyRLS0t0uEkWwAAAJQXzXCa5dKFSX8xqxbJxBC51UmyXd3ddiwAAADKjWY5k+kyaJnMKkjqcXV9cT2WvrW1lRAJAABQAUyYdLKdd75kqutdAgdJrzXShEibWgEAAFAZvKPN6S6+CRwk9QW163YSa0dnp60FAABApdCMp1nPy32JAgdJbeLU4+Z63yFu7wMAAFB5zO2BnKynmS9Z3nOCpNtMmfxRfxzRMs2Z0ZJJpXqH9J7eXlsDAACASqNZTzOf2yLpZUGn72TDrA5t67FzWiMBAAAql2Y9zXw5PbStJ172Oh0AAAAqm2Y+zX6JAgfJVMkUAAAAlcU7Ep0oqxZJACg1vetfkseWL5dHH31Uli9/XJ55bb20F/D/vJsfWSw/uOQeeYezfgBUmJy2SPb199shACgdg+8tk8UXXiZXLlki11y5WH767TPkM6ddKPesK1CaDIclHApJyBYBoFIky37xQdJciONejRO756T/yu3oA4e1AZSupvfJv196hVxx5bXyxz9eKieNe0J+d+MzUog73k444Ety3jcPlx0D/zcdAEqTZj+bEr04KJFJkyad6w5mbsL48XL00UfbEgCUjv53H5c7/tEv+3/8INm5zqmoaZbI2mWybMNcOeqQXeTdpdfJza80yNxZk6TWPOFNuf/6P8uzoVkyd/t6eW/57+WGZRulqWGV3H7l1fLne5+XlgmzZc72o8z/vDMaf3+b7LRwF+l8LP20qnf943LT1VfJ7299QF5pr5e+1+6Wu1+plTlztxddfAAoJXfeeads2bJF9LhLKBQKfmgbAMrBUNsLcv/yVpm612wZ4/wXunvNI/LAy60SPYUx1COrH/y7vLjVLYZbXpBlj/1Vrrv6RZl04BFywITX5frvnyc3veEehRl2/Jbn5d4n14mWhpt2YO3t8oOzLpClXXPkkKMOksmv/Uluvme5PLKiw/vPPgCUjJz+RCIAlKyuZ2XJOV+Rs888TT79+cvkjYPOke8cu5NE7Oi0nB1l98bRcuQ5Z8vHDj5Yjjvr6/LJXd6SJ5/dkNl4v7TTdsg/b7lZ1u75NbnonE/JER9eJCd96zty5PhW4VJGAOWCIAmg8oyaLYefdKJ89ICpMmqwQXZZOFsmZJQiHaGQ1G0/V2aMt5fL1IyT7SfWSU93j9uKOdx4v3TTDrwnr768VXbed4FMdMc6e+TxMnX6BPeQOwCUAYIkgAo0ygloh8oxp/5ALvz8dvKPX/5WHmmxoxIlOVQTCoV9O0f3PCC/4cb7pZ62X3r7naBZV2PLalD6+ryT2QGg9IXT7rGi4+Kv3NbhcJgMCqDURWTKkV+UT23/uPzvdU9Jm7PLa2isk87166XVNh8ObV4tqzYX4aaPkQmy65RaWfv8Cmm1VdL3lrzw4nvSl26/DABFEs1+dh9l8qA7OHJ6nzQAKHk1U+WYLxwtdff+Vv7wfK9M2ed9Munl6+SSK+6Sfzxwi/zysntla3Omx71zaaK8//gPS82yi+WHl98m9z94t1xz4a/k+YYdpY7dK4ASlCz7BQ6SkUgxdrwAMIz6mXLIEXNltK9Vr2Hep+SrZxwg8swTsmG3k+X8H/+r7PLeQ/K3hzfI/JNPlRMOP0J2H2snHr9QFu23Q9zh6PELD5F9drA1w4wfdMYfsd+O7oU9w0zbvPeX5LJLTpe57U/IPfe9Io0fPVOO3WVQIvV14j/gDQClIFn2C82ZM9ecIWQu6XY688cM+stunSk73YyZM+TaJUukvaMj7blBAIARGHhTbvzmf8jjh14mF398ihM7AaA0aP5rbmqSU049VVatXOXmP6eL/Ud5hOrq6ji8DQBZ2LDs13LJ9Uvl6VdWyqpXlstNF58nN2zcV044mBAJoLRo5tPslyhwkNTmzZqaGpNQAQAj1zh1jkx4869y1SUXyPmXXC9PNx0nF/zym/KBcXYCACgBmvU08yU9tD17zlw9hq1Hrd1Q6HTmj79s6mJlPbR9y803S1tbm+lCXMENAABQkYYGB2X06NGmO+ETnzCHtvWwth6YzqpFsra21iRU/RFvAAAAVBbNeJr1NPMla5EMHCT1BbWrr6+PtloCAACgMnhHojXrebkvUeAgqTel1JMu9cUbGhqkv7/fjgEAAEC502ynGU+znrnIOsmpjFkf2tYX1pnU1tRIb0+PHQsAAIBypZlOs51mPM16mvlSH9pOPCrtK8cGdci96EZpKtUX9Fokm5qaTJkwCQAAUL40y2mm02zntUhq2WuR9MfGwC2SeiNKfUE9AVNnoF1zc7Op6+rqksHBIvx2LQAAAALR7KYZTrOcZjov32nW07pkP0ITOEgqL0h6h7dHjRplLg2vq62Vnu5u6evrs1MCAACgVGlm0+ymGU6znGY677C2FySTySpIJrZK6gwbGxtlzJgxZgEG+vulq7OTC3EAAABKkGY0zWqa2TS7aYbTLOcd0k7XGqmyCpLKC5PerYB0IbwwqZ3W9/X2SmdHh/Rw/iQAAEDRaSbTbKYZTbOal9s0w2mW00yn9elCpMo6SKrEMKkLoSdo6vH1cePGmSZSrdc7o7e3tUlHe7t0Oum311l4bUrlfEoAAIDc03tBaqujZi7NXprBNItpJtNsphlNs5pmNs1umuEyDZHK/ESiezPx2M8ixspunT6YP3bczBkz5b77lunz43jjNRjqQmunQdHfeeFR75TudQAAAMgfvera6zQkerf08Xd6GNt/KDtZiDz0sMNk5cqV0fE5DZIenUbDpPa9QKllL0B6ZS9EEiYBAADyQ8Oj19eQqGHRC5ReWTsNhsO1QhYkSHq86b3QqP3ETscDAAAgf7yQmNh54dILhsMpaJD0uK8Xe22v0yAJAACA/PMHRq9TXj8TRQmSfu5rx0tWBwAAgOwlC4ojCY9+RQ+SAAAAKE+JQTJ2+x8bGKMSB31lAAAAVCEvD2rf6XJyH0kAAABUH4IkAAAAAiFIAgAAIBCCJAAAAAIhSAIAACAQJ0i6l98kvSjbV2kG9SHphAAAAKgKNgtqjxZJAAAABEKQBAAAQCCh2XPmmB+ysQ/u0Wtv2Ff2182cmZufSPQPAwAAIH/8P4voHx6JQw+N/bKN81CYIOk9P1nnjQcAAEDueaFR+6m6TBUsSJrpHYODg6bTcl9fn/T09Jiu1xnWsn88AAAAciscDkskEpHa2lqpc7r6+nrTaVkDoY7XTg0XKhODZNgkxSRi1TrkljKNehoKNRz29/ebsNjW1iYbNmyQdevXy7vvvSctW7dKZ2enGTcwMECIBAAAyBPNZJq5NHtpBtMspplMs5lmNB2nmW0kDXveVDm92CYxQLa3t5uF3LBxo7TaBQUAAEBxaSbTbKYZTbOaZrYggTJnQVJnqK2LuhC9vb2yZcsWs3DtHR1mgQAAAFBaNKNpVtPMptlNM5xmuUyPGOckSHohUlNsV1eXbNq82TSdah0AAABKm2Y2zW6a4TTLaabLJExmHSQTQ2RLS4t0OMkWAAAA5UUznGa5TMNkVkEyMURudZJsV3e3HQsAAIByo1nOZLoMwmSSIBmb0AxFi9u+gB5X1xfXY+lbW1sJkQAAABXAhEkn23nnS8aud/HnwaHgLZJea6QJkTa1AgAAoDJ4R5vTXXwTOEjqC2rX7STWjs5OWwsAAIBKoRlPs56X+xIFDpLaxKnHzfW+Q9zeBwAAoPKY2wM5WU8zX7K8l1WLpN4hvae319YAAACg0mjW08yX0xZJfTE9dk5rJAAAQOXSrKeZL02QdE+eNI/bnkeZxJA58bLX6QAAAFDZNPNp9otxA2PgFslUyRQAAACVxTsSnShwkIxPpQCQa+2y9pnl8tjTa6Q18QyazrfkuceWy0vr+21Fttx5Pfroo07nzPOpF2XN5p7MDtDkQu/rcvMFP5Ql/2yzFQBQepJlv+BBsj9XO3AASKZTXvjjT+WH3/2uLH54i62zBtbInZdeIQ9tyeQc7SHpeONh+fMdzzhxMZVOef4PF8vPf7NEliy5Wq649AfylX/7V/nakuelID/4GgpJOBKWkC0CQClKlv2yutgGAPJpcKhB5r5vR3nqiqvksVZbOWID8tb918sdr3SlbWEckhrZ+bjvya+v+B+5+oYb5Zpz3icbb14i97xTgHbJ2ply/HfPlVP2Hm0rAKD0JMt+kYkTJ51rhzM2YcJ4OfqYY2wJAPKhQ1bce6esmvtpObz7DrlpzQw5bP8pUqejet+Uh27/pzQecpzsOznipMBuWff4bXLddb+XW//6kLywoVZ23m0XGVOzSZ74vxvkwZfXyFtbe6R19Qvy+tBUWbBTo5lDjM7rLlm105Fy1PyxEnL+j900ukOe/oszj4OPkb3lafnT9Utlyw4LZNcx7v+/tzz1Z/ndvRtlhwVTZUzv6/L3626W54bGSvfD18v/3HCHPLomJLvOmy7jap2Ju4cZ3/Oq/PWam+SF2jkyb+za9NOqwTZ57Z7r5cprbpS/P/W2hBpa5bG/PCCbtlsg08YGbh8AgGHd+Ze/yJYtW0QPoYT0aErs/9ruUOzRV44Wh2KDAFAI9TPl+C8eL81LF8vvnkv2K1od8tyVX5cv/fxhkfmL5OjDdxdZ/gv56reulZe7w1I3qlEa6iISjjRIQ+MoqYukO4Ds7uOcpCpvPvyArBizUPacUuOUN8tz9zwh64Z8IW3rC7L00bXSpy8X7pFVDyyVZdf/Sm7tmCuHLZovfQ9cKt9fvFzMWY/DjQ/1yxsPPSCre5xQPNy0zuPTv/6a/Mc1r8vEAz8ih83rkruv+T9ZuvRxWT/EwXEA+aM/kejmwFgS5L+uAEpbTUQaZp4oX/6XZlm2+A/yYrettwbX3i1X3xWREy/6qXz5+EPlg4edKF87/xty4Obb5Y8PD8meH/u0fGhqrcikfeSEk0+WE/aZaJ8ZLyQD8s5dF8vXvnKW/PvnTpbv3DVWPnfuF2WfZjvBsNpkcK+z5HunfEQ+dNi/ydfOOEB6nnlcXo8u73Dj/VJPO/jWPXL90ogc98MfyRnHHCqHHHumnHvmQhkoyMmcABCPIAmgDNTJrE+cJcdG7pJf/+lV6bG1qn31y7Ju/N6y31Rz0Ns1era8b06trFvznmR6f4khich2+x4jJ358kSycVCs1k+fLgp0b7NhMNMu02fbQu6Nxu+2kua9TuqPnpg833i/1tB2rX5G3mveQ/afHlq1hykyZMsoWAKCACJIAykPDXPnUV46WgVt/LTe/Hvtp1qGhQRka6JP+uAu4zck7EhrhHq5m+wXy4SNOlLPP/5YcsG6J/OLPK+OD6FC6E3tCEg7HDi2HnJnHH2gebrxf6mn7+/pkqKZeav3vbbA/4f0DQGEEDpLhMBkUQGE1zP+0fPmj3XLb7x6TTnvhSfPUWbL91mfk8VW+Y8Rtr8lTrw7KrrvtKGYyJwAODowgaTXtJSf/+0Gy6cbfyp1rB0TqGqUpvFne2eDNo1veXvm2dDthtdCap+wkYze/KM+/E2vKbHnlGVmT9BA5AOROsuwXPEgWYQcKoNo1ysLPnCkfbntEntzo1kSmHSunLOqX2879T1l8y33y0LKb5PIfXS7PTv+MfO7Asc4UNTJ++wnS9dzf5M6ld8vdT9knDmP0/qfK5/d6W/501VJ5t2meHLigX+5bfLn86f4H5e/X/lz+8FqtNKRtocyP2llHyQkL18vvf/wTueHeB+W+Gy+R827aJBMzPpcTAIJJlv3c2/8k7gsTyvHFIZkwYYKccPzx3EsSQB51y9ZN3VI/ZZ7ssevo2GHguh1lzrRRMtg8WabOXCi7TWySKfsfIQdu3yIvPvaYPLuqQyYffLp84/QPyQ56wbWjadoC2bXvFVn+5DtSN2c/2XObEwqTzCvUKLtMnyhd61+Xd2v3lKOOO1Amb31BHntyhbTvdKQcf8B4qW3aSeYunCpjBtukpT0sY6fOlznb1ZtX7Nu6SVoj42T67nNlu8hw47fIhpawjJm6u8yd2JN+2oYxMvugg2Rqz6vy+OMvyruj9pOTP7WLvHzPWtn12CNl3mj+kw8gP2pra+W22283t/8JeX9mzZ4zpId9zB8nMeql3Ynl+LohmTlzplx37bXS3tEheg8hAEDxtC2/WM787zr55pVfl3246AZAHmj+a25qks+dcoqsXLnSDZFOBgx8aLuuro7D2wBQaH2vyJ9+9mu5/dHn5fU1K+W5e/9XzrvsUdnuY8fJAkIkgDzRzKfZL1HgIBmJRKSmpsZtrQQAFEZ4ksye0SeP/+FXctG5F8hv/vqeLPzy5fKTT82M3i4IAHJJs55mPs1+iQIf2r71llukra3NdCGu4AYAAKhIQ4ODMnr0aNMdf8IJ2x7aHq5NMXoA20zoljSV6kmXmlC56AYAAKDyaMbTrKeZL65F0obDwE2J+oLa1dfXu62V2moJAACAiuAdkdas5+W+RIGDpN6UUk+61BdvaGiQ/v6kv/MFAACAMqTZTjOeZj1zkXUub0juHdrWF9aZ1NbUSG+P/xdwAQAAUI4002m204ynWU8zX7KLbbJqkdQX9Fokm5qaTJkwCQAAUL40y2mm02zntUhqOactkuZKHecF9QRMnYF2zc3Npq6rq0sGB0fwu7YAAAAoKs1umuE0y2mm8/KdZj2tS/YjNKmDpLl2xr2AJv4ymljJC5Le4e1Ro0aZS8Pramulp7tb+vr67JQAAAAoVZrZNLtphtMsp5nOO6ztBclkArdIqsRWSZ1hY2OjjBkzxizAQH+/dHV2ciEOAABACdKMpllNM5tmN81wmuW8Q9rpWiNVVkFSeWHSuxWQLoQXJrXT+r7eXuns6JAezp8EAAAoOs1kms00o2lW83KbZjjNcprptD5diFRZB0mVGCZ1IfQETT2+Pm7cONNEqvV6Z/T2tjbpaG+XTif99joLr02pnE8JAACQe3ovSG111Myl2UszmGYxzWSazTSjaVbTzKbZTTNcpiFSmZ9IdG8mrjcVd2eoA9o3f5LU6U8k3n/ffe4r+JjxTqfBUBdaOw2K/s4Lj3qndK8DAABA/uhV116nIdG7pY+/08PY/kPZyULkIYce6v5Eoo7XP7kMkh6dTsOk9r1AqWUvQHplL0QSJgEAAPJDw6PX15CoYdELlF5ZO+8Ic7pWyNRB0oZEHTTDXmeKIwuSHu81vNCo/cTOvDYAAADyxguJiZ0XLk0wTBMgPSZIvm6DpHb5DJIe83zb93caJAEAAJB//sDodcrrZ6IoQdLPvFaCZHUAAADIXrKgOJLw6Ff0IAkAAIDylBgkc3L7HwAAAFQfgiQAAAACSRkkY2ctukPRcmwEAAAAqpRGQlokAQAAEAhBEgAAAIEQJAEAABAIQRIAAACBECQBAAAQSNIgqVfhxN/vnEu1AQAAEI8WSQAAAARCkAQAAEAgBEkAAAAEQpAEAABAIARJAAAABBIfJO3F2XrFNtdpAwAAIB1aJAEAABAIQRIAAACBECQBAAAQCEESAAAAgRAkAQAAEEh8kLQ/sM0V2wAAAEjK5kVFiyQAAAACIUgCAAAgEIIkAAAAAiFIAgAAIBCCJAAAAAKJD5Lmcu1U12xzLTcAAEDV80VCWiQBAAAQCEESAAAAgRAkAQAAEAhBEgAAAIEQJAEAABBINEiaC3DMbyf6fkAxjq1PNRoAAABVhRZJAAAABEKQBAAAQCAESQAAAARCkAQAAEAg0SBprqFJ+xOJAAAAqHq+C69pkQQAAEAgBEkAAAAEQpAEAABAIARJAAAABEKQBAAAQCAESQAAAIyYXrxNkAQAAEAgBEkAAAAEQpAEAABAIARJAAAABEKQBAAAQCDxQdL8dqL7A4qxQbcMAAAA+NEiCQAAgEAIkgAAAAiEIAkAAIBACJIAAAAIhCAJAACAQFIGySHbd4W4gBsAAABxaJEEAABAIARJAAAABJIySLpHsZMdy7aHuQEAAFCdNAw6XUKQ9MVH8+CeKRkrAwAAoFppHPQ3KQ5zaNuXHu3VN1rTPzAgGzZscCsAAABQ8TT79fcP2JIrTZD0hUg3fnoP0tPdI6+tWGGGAQAAUPk0+3X3dNuSmwlNkPRlxG34q73hnt4eWfHaa7YEAACASqfZr7en1wy7mTCUokUyWXr0Bpxee1u73HDD7+Wtt95y6wAAAFCxNPNp9mtvb4/LiW6QNBVubdxjtN4te72+vj5Zv369/GrxYrcCAAAAFUszn2Y/zYCGkwk1FkYmTZx0rltjxWfGqFiodOkx8k0bN8nKlStl7ty5MmbMGDsGAAAAlUBbIi+66Cey7L5lsmnTJlMX0lDodKY3e/acIb0ge0gfnS5+2PnjViQfdowdO0Z22GEH+exnPiOzZs2S2bNny+TJk92RAAAAKCt6dfZrr70mK1askOtvuMG0RLZubXVHang0DxoknW72HCdImtzohUeHPyz6hs00Sepra2tkdPNoqauvk4b6BolEws4YM2kaaUemFfiZwWeZhcLPtLzeZlGWtuCqZNNzVMfnWRyxI0IVrQhvs0rWrCPgO62az6Twc9UWvcJLM1NnlI7VW/z09HRLT2+vOSeyr6/fbX00E9iWSG949py5Tj7UQKhfADYk2n7y4Kgj3HH6x/3rq3cfov1UzPigAj61GPPMRuDlDbyswd9kEVZPeX0m5aZK3iaGod8oSMl8kRZaFrMM/tTyeZ/F+EzMYd5Cy2KWadeRMyoaEKPDbt89nO3VxcZHg6QbFB22H6tz/rgVsWHT1/FmKG54m34K5jmFlsUs072XtIryNqtgWbNRhFlmoyjrCCgS8yVVDQK+zezWTlFmGkhRtoPAqyeLZS2xeZrXNX/9fefRX6dlr16fo0EyLiSaYe2ZR1+dM6B/txlOGK9/3ErzNxX7zGACPrVa5hlUVssaVBFmmc1My2xxkSfF+Lfi7rKRUhFWT3azDPjsMtoMirLNZjHLwMtbSfM0o5wpnL6ZLtr317nDpqTDJkjqblEf3QRo+26dPpg/KYbdv7G+ea6vLhUzvtCymGXg5S3K26yCZc1GEWaZzUyLsrjVopxWrtlxV77ivM0izLUosyzwTLOYXcGXVQWcZVbLWox5pqPB0PScR/NXH+zcbHmbcf4g6YZDrx9fFxcuTd8ZMH9t307nTu+NS8N9oUDsnAor4CyzWtYCv81yWtZsFGX7yUaZLW5wVfNGC8x8BVS+Mnub9qu5sAo8y3J7j4GXt8zmme7JZozzYJZLQ2J0OL7OlHRYh9wg6ezCTbBzvmJNz/2q3TY8phhn69y+M2T+uv1U7DOCCfjUrOYZVFZvs8DLW5TVU16fSVBFeZ/In2J8nGbnjVTcr7QyUoTFLfg6Krf3GPCpRdn23DQXSNpnOiPN+9G/Zh723SUJkF5dNEgmDYheP25cwjRmnDNg/ibpp5Jm1HDSvm46WcwzqMDLmgXvcyqoIswyqGJ8JuW0foqlKJ9LFbC7fKRThFVUlM+ljDYFN8QUVuDPJKtFDfbkfM3SrAPz19+3a8YLjrbOrXJKqYKk/RsNJZmER3dSW7bPS8U8L6iATy3GPLOR1fIGkdXqKcIKCqoaPstsldniIk/c74qyYL/qykcRFrfg66ga3qOyoSqIwM/M4m2mXUfOKDPeTOIM+cpu3z5b++6AhObM1dv/aMH5qvP3nQe3GN+PD5oppvXV54M3lxHLYnECzzMbBZ5lub3HoixvUGW0qNWknLYhu/tGPpTRqs1qOyjw+yzKNluUWRb+M8nbunVe1j10bV8/ITiaUrTvjgvNmTvPyYZ2Z5oYCG3fC4/uZAl9O03Kfkrpx6YV8KnDLVFaWTw1qMDLW07LWgysH2SrGB+n7rGRF/arsrDK6PMsp/VTbp9l4OXN6m2mfrIZ4w+PiX13wPRNrdZpkDRfc2bH6PWdIR2IhkFbn6qcpp9K6jEZSPO6+WLfUWEFnGXwJc3iPRZh9QRVlM+yGKrmbVbJGy0C+/VRWEWYZTFUx7oNPsPAz8ziPZbTZ5K3ZfWHxkz78UHSGYoNuLvnuL6Z1PS9ybzxXqulN97+TSP92HSi8x6x4PPM5qlBuWu2gIqyesrrMymGgm8HQBmyX2vlowiLW/B1VG7vsZyWN6tlTf1kM8Z5MMuVJDR6vdh4kf8PDAznufeem5MAAAAASUVORK5CYII=;" vertex="1" parent="1">
          <mxGeometry x="1294" y="220" width="658" height="296" as="geometry" />
        </mxCell>
      </root>
    </mxGraphModel>
  </diagram>
</mxfile>
